<svg width="77" height="87" viewBox="0 0 77 87" fill="none" xmlns="http://www.w3.org/2000/svg">
  <g clip-path="url(#clip0_0_1)">
    <path fill-rule="evenodd" clip-rule="evenodd"
      d="M34.0002 6.66699C29.3552 6.66699 25.2285 8.76199 22.2902 11.3553C20.8168 12.657 19.6002 14.117 18.7435 15.5737C17.9002 17.002 17.3335 18.5503 17.3335 20.0003C17.3335 21.4503 17.9002 22.9987 18.7435 24.427C19.6002 25.882 20.8152 27.3437 22.2902 28.6453C25.2285 31.2387 29.3568 33.3337 34.0002 33.3337C38.6452 33.3337 42.7718 31.2387 45.7102 28.6453C47.1852 27.3437 48.4002 25.882 49.2568 24.427C50.1002 22.9987 50.6668 21.4503 50.6668 20.0003C50.6668 18.5503 50.1002 17.002 49.2568 15.5737C48.4002 14.1187 47.1852 12.657 45.7102 11.3553C42.7718 8.76199 38.6435 6.66699 34.0002 6.66699ZM37.3335 20.0003C37.9335 20.0003 38.4952 19.842 38.9818 19.5653C39.0706 20.5873 38.843 21.6119 38.3296 22.5001C37.8163 23.3883 37.0422 24.0971 36.1124 24.5304C35.1825 24.9636 34.1419 25.1004 33.1316 24.9221C32.1214 24.7438 31.1905 24.2591 30.4651 23.5337C29.7397 22.8084 29.255 21.8774 29.0767 20.8672C28.8984 19.8569 29.0352 18.8163 29.4685 17.8864C29.9017 16.9566 30.6105 16.1825 31.4987 15.6692C32.3869 15.1559 33.4115 14.9282 34.4335 15.017C34.1445 15.5243 33.9938 16.0985 33.9965 16.6823C33.9992 17.2661 34.1552 17.839 34.4488 18.3436C34.7424 18.8482 35.1634 19.2668 35.6697 19.5575C36.176 19.8483 36.7497 20.001 37.3335 20.0003Z"
      fill="white" />
  </g>
  <path
    d="M0.44 64.8C0.44 62.7307 1.21867 61.0133 2.776 59.648C4.33333 58.2827 6.43467 57.6 9.08 57.6H18.84V80H15.16V72H9.72L4.92 80H0.6L5.88 71.52C4.19467 71.0293 2.86133 70.1867 1.88 68.992C0.92 67.7973 0.44 66.4 0.44 64.8ZM5.528 62.144C4.696 62.8267 4.28 63.712 4.28 64.8C4.28 65.888 4.696 66.7733 5.528 67.456C6.36 68.1387 7.544 68.48 9.08 68.48H15.16V61.12H9.08C7.544 61.12 6.36 61.4613 5.528 62.144ZM21.2538 83.52V76.96H22.8538L26.5338 63.68H33.7338L37.4138 76.96H39.0138V83.52H35.9738V80H24.2938V83.52H21.2538ZM26.3738 76.96H33.8938L31.1738 66.72H29.0938L26.3738 76.96ZM41.1075 86.08V63.68H44.4675V65.76H44.6275C45.0115 65.312 45.4488 64.9173 45.9395 64.576C47.0915 63.7653 48.3608 63.36 49.7475 63.36C51.9448 63.36 53.7688 64.1493 55.2195 65.728C56.6915 67.2853 57.4275 69.3227 57.4275 71.84C57.4275 74.3573 56.6915 76.4053 55.2195 77.984C53.7688 79.5413 51.9448 80.32 49.7475 80.32C48.3395 80.32 47.0702 79.9253 45.9395 79.136C45.4275 78.7733 44.9902 78.368 44.6275 77.92H44.4675V86.08H41.1075ZM45.7155 67.84C44.8835 68.7787 44.4675 70.112 44.4675 71.84C44.4675 73.568 44.8835 74.912 45.7155 75.872C46.5688 76.8107 47.6995 77.28 49.1075 77.28C50.6008 77.28 51.7742 76.8107 52.6275 75.872C53.4808 74.9333 53.9075 73.5893 53.9075 71.84C53.9075 70.0907 53.4808 68.7467 52.6275 67.808C51.7742 66.8693 50.6008 66.4 49.1075 66.4C47.6995 66.4 46.5688 66.88 45.7155 67.84ZM61.767 77.888C60.1457 76.2453 59.335 74.2293 59.335 71.84C59.335 69.4507 60.1457 67.4453 61.767 65.824C63.4097 64.1813 65.4257 63.36 67.815 63.36C70.2043 63.36 72.2097 64.1813 73.831 65.824C75.4737 67.4453 76.295 69.4507 76.295 71.84C76.295 74.2293 75.4737 76.2453 73.831 77.888C72.2097 79.5093 70.2043 80.32 67.815 80.32C65.4257 80.32 63.4097 79.5093 61.767 77.888ZM64.231 67.904C63.3137 68.8853 62.855 70.1973 62.855 71.84C62.855 73.4827 63.3137 74.8053 64.231 75.808C65.1483 76.7893 66.343 77.28 67.815 77.28C69.287 77.28 70.4817 76.7893 71.399 75.808C72.3163 74.8053 72.775 73.4827 72.775 71.84C72.775 70.1973 72.3163 68.8853 71.399 67.904C70.4817 66.9013 69.287 66.4 67.815 66.4C66.343 66.4 65.1483 66.9013 64.231 67.904Z"
    fill="white" />
  <defs>
    <clipPath id="clip0_0_1">
      <rect width="40" height="40" fill="white" transform="translate(14)" />
    </clipPath>
  </defs>
</svg>