<svg width="404" height="225" viewBox="0 0 404 225" fill="none" xmlns="http://www.w3.org/2000/svg">
  <line x1="1" y1="195.5" x2="401" y2="195.5" stroke="white" stroke-dasharray="8 8" />
  <path
    d="M11.11 214.51V213.3H16.335V214.51L13.255 221H11.88L14.905 214.62V214.51H11.11ZM17.2137 216.655C17.067 216.508 16.9937 216.325 16.9937 216.105C16.9937 215.885 17.067 215.702 17.2137 215.555C17.3604 215.408 17.5437 215.335 17.7637 215.335C17.9837 215.335 18.167 215.408 18.3137 215.555C18.4604 215.702 18.5337 215.885 18.5337 216.105C18.5337 216.325 18.4604 216.508 18.3137 216.655C18.167 216.802 17.9837 216.875 17.7637 216.875C17.5437 216.875 17.3604 216.802 17.2137 216.655ZM17.2137 220.945C17.067 220.798 16.9937 220.615 16.9937 220.395C16.9937 220.175 17.067 219.992 17.2137 219.845C17.3604 219.698 17.5437 219.625 17.7637 219.625C17.9837 219.625 18.167 219.698 18.3137 219.845C18.4604 219.992 18.5337 220.175 18.5337 220.395C18.5337 220.615 18.4604 220.798 18.3137 220.945C18.167 221.092 17.9837 221.165 17.7637 221.165C17.5437 221.165 17.3604 221.092 17.2137 220.945ZM20.5107 220.076C19.814 219.313 19.4657 218.338 19.4657 217.15C19.4657 215.962 19.814 214.987 20.5107 214.224C21.2074 213.461 22.0507 213.08 23.0407 213.08C24.0307 213.08 24.874 213.461 25.5707 214.224C26.2674 214.987 26.6157 215.962 26.6157 217.15C26.6157 218.338 26.2674 219.313 25.5707 220.076C24.874 220.839 24.0307 221.22 23.0407 221.22C22.0507 221.22 21.2074 220.839 20.5107 220.076ZM21.4127 215.038C20.9947 215.537 20.7857 216.241 20.7857 217.15C20.7857 218.059 20.9947 218.763 21.4127 219.262C21.838 219.761 22.3807 220.01 23.0407 220.01C23.7007 220.01 24.2397 219.761 24.6577 219.262C25.083 218.763 25.2957 218.059 25.2957 217.15C25.2957 216.241 25.083 215.537 24.6577 215.038C24.2397 214.539 23.7007 214.29 23.0407 214.29C22.3807 214.29 21.838 214.539 21.4127 215.038ZM28.6533 220.076C27.9566 219.313 27.6083 218.338 27.6083 217.15C27.6083 215.962 27.9566 214.987 28.6533 214.224C29.3499 213.461 30.1933 213.08 31.1833 213.08C32.1733 213.08 33.0166 213.461 33.7133 214.224C34.4099 214.987 34.7583 215.962 34.7583 217.15C34.7583 218.338 34.4099 219.313 33.7133 220.076C33.0166 220.839 32.1733 221.22 31.1833 221.22C30.1933 221.22 29.3499 220.839 28.6533 220.076ZM29.5553 215.038C29.1373 215.537 28.9283 216.241 28.9283 217.15C28.9283 218.059 29.1373 218.763 29.5553 219.262C29.9806 219.761 30.5233 220.01 31.1833 220.01C31.8433 220.01 32.3823 219.761 32.8003 219.262C33.2256 218.763 33.4383 218.059 33.4383 217.15C33.4383 216.241 33.2256 215.537 32.8003 215.038C32.3823 214.539 31.8433 214.29 31.1833 214.29C30.5233 214.29 29.9806 214.539 29.5553 215.038Z"
    fill="white" />
  <path
    d="M97.275 215.83V214.4L98.705 213.3H99.86V221H98.595V214.84L97.275 215.83ZM102.171 220.076C101.474 219.313 101.126 218.338 101.126 217.15C101.126 215.962 101.474 214.987 102.171 214.224C102.868 213.461 103.711 213.08 104.701 213.08C105.691 213.08 106.534 213.461 107.231 214.224C107.928 214.987 108.276 215.962 108.276 217.15C108.276 218.338 107.928 219.313 107.231 220.076C106.534 220.839 105.691 221.22 104.701 221.22C103.711 221.22 102.868 220.839 102.171 220.076ZM103.073 215.038C102.655 215.537 102.446 216.241 102.446 217.15C102.446 218.059 102.655 218.763 103.073 219.262C103.498 219.761 104.041 220.01 104.701 220.01C105.361 220.01 105.9 219.761 106.318 219.262C106.743 218.763 106.956 218.059 106.956 217.15C106.956 216.241 106.743 215.537 106.318 215.038C105.9 214.539 105.361 214.29 104.701 214.29C104.041 214.29 103.498 214.539 103.073 215.038ZM109.433 216.655C109.287 216.508 109.213 216.325 109.213 216.105C109.213 215.885 109.287 215.702 109.433 215.555C109.58 215.408 109.763 215.335 109.983 215.335C110.203 215.335 110.387 215.408 110.533 215.555C110.68 215.702 110.753 215.885 110.753 216.105C110.753 216.325 110.68 216.508 110.533 216.655C110.387 216.802 110.203 216.875 109.983 216.875C109.763 216.875 109.58 216.802 109.433 216.655ZM109.433 220.945C109.287 220.798 109.213 220.615 109.213 220.395C109.213 220.175 109.287 219.992 109.433 219.845C109.58 219.698 109.763 219.625 109.983 219.625C110.203 219.625 110.387 219.698 110.533 219.845C110.68 219.992 110.753 220.175 110.753 220.395C110.753 220.615 110.68 220.798 110.533 220.945C110.387 221.092 110.203 221.165 109.983 221.165C109.763 221.165 109.58 221.092 109.433 220.945ZM112.73 220.076C112.034 219.313 111.685 218.338 111.685 217.15C111.685 215.962 112.034 214.987 112.73 214.224C113.427 213.461 114.27 213.08 115.26 213.08C116.25 213.08 117.094 213.461 117.79 214.224C118.487 214.987 118.835 215.962 118.835 217.15C118.835 218.338 118.487 219.313 117.79 220.076C117.094 220.839 116.25 221.22 115.26 221.22C114.27 221.22 113.427 220.839 112.73 220.076ZM113.632 215.038C113.214 215.537 113.005 216.241 113.005 217.15C113.005 218.059 113.214 218.763 113.632 219.262C114.058 219.761 114.6 220.01 115.26 220.01C115.92 220.01 116.459 219.761 116.877 219.262C117.303 218.763 117.515 218.059 117.515 217.15C117.515 216.241 117.303 215.537 116.877 215.038C116.459 214.539 115.92 214.29 115.26 214.29C114.6 214.29 114.058 214.539 113.632 215.038ZM120.873 220.076C120.176 219.313 119.828 218.338 119.828 217.15C119.828 215.962 120.176 214.987 120.873 214.224C121.57 213.461 122.413 213.08 123.403 213.08C124.393 213.08 125.236 213.461 125.933 214.224C126.63 214.987 126.978 215.962 126.978 217.15C126.978 218.338 126.63 219.313 125.933 220.076C125.236 220.839 124.393 221.22 123.403 221.22C122.413 221.22 121.57 220.839 120.873 220.076ZM121.775 215.038C121.357 215.537 121.148 216.241 121.148 217.15C121.148 218.059 121.357 218.763 121.775 219.262C122.2 219.761 122.743 220.01 123.403 220.01C124.063 220.01 124.602 219.761 125.02 219.262C125.445 218.763 125.658 218.059 125.658 217.15C125.658 216.241 125.445 215.537 125.02 215.038C124.602 214.539 124.063 214.29 123.403 214.29C122.743 214.29 122.2 214.539 121.775 215.038Z"
    fill="white" />
  <path
    d="M189.275 215.83V214.4L190.705 213.3H191.86V221H190.595V214.84L189.275 215.83ZM192.961 221V219.79L195.59 217.931C196.162 217.52 196.573 217.139 196.822 216.787C197.071 216.435 197.196 216.061 197.196 215.665C197.196 215.247 197.068 214.913 196.811 214.664C196.554 214.415 196.206 214.29 195.766 214.29C195.223 214.29 194.816 214.51 194.545 214.95C194.428 215.141 194.34 215.361 194.281 215.61H192.961C193.027 215.141 193.17 214.719 193.39 214.345C193.911 213.502 194.703 213.08 195.766 213.08C196.58 213.08 197.24 213.322 197.746 213.806C198.259 214.283 198.516 214.884 198.516 215.61C198.516 216.241 198.355 216.809 198.032 217.315C197.709 217.814 197.192 218.309 196.481 218.8L195.381 219.57L194.886 219.79V219.845L195.546 219.79H198.516V221H192.961ZM199.618 216.655C199.471 216.508 199.398 216.325 199.398 216.105C199.398 215.885 199.471 215.702 199.618 215.555C199.765 215.408 199.948 215.335 200.168 215.335C200.388 215.335 200.571 215.408 200.718 215.555C200.865 215.702 200.938 215.885 200.938 216.105C200.938 216.325 200.865 216.508 200.718 216.655C200.571 216.802 200.388 216.875 200.168 216.875C199.948 216.875 199.765 216.802 199.618 216.655ZM199.618 220.945C199.471 220.798 199.398 220.615 199.398 220.395C199.398 220.175 199.471 219.992 199.618 219.845C199.765 219.698 199.948 219.625 200.168 219.625C200.388 219.625 200.571 219.698 200.718 219.845C200.865 219.992 200.938 220.175 200.938 220.395C200.938 220.615 200.865 220.798 200.718 220.945C200.571 221.092 200.388 221.165 200.168 221.165C199.948 221.165 199.765 221.092 199.618 220.945ZM202.915 220.076C202.218 219.313 201.87 218.338 201.87 217.15C201.87 215.962 202.218 214.987 202.915 214.224C203.612 213.461 204.455 213.08 205.445 213.08C206.435 213.08 207.278 213.461 207.975 214.224C208.672 214.987 209.02 215.962 209.02 217.15C209.02 218.338 208.672 219.313 207.975 220.076C207.278 220.839 206.435 221.22 205.445 221.22C204.455 221.22 203.612 220.839 202.915 220.076ZM203.817 215.038C203.399 215.537 203.19 216.241 203.19 217.15C203.19 218.059 203.399 218.763 203.817 219.262C204.242 219.761 204.785 220.01 205.445 220.01C206.105 220.01 206.644 219.761 207.062 219.262C207.487 218.763 207.7 218.059 207.7 217.15C207.7 216.241 207.487 215.537 207.062 215.038C206.644 214.539 206.105 214.29 205.445 214.29C204.785 214.29 204.242 214.539 203.817 215.038ZM211.058 220.076C210.361 219.313 210.013 218.338 210.013 217.15C210.013 215.962 210.361 214.987 211.058 214.224C211.754 213.461 212.598 213.08 213.588 213.08C214.578 213.08 215.421 213.461 216.118 214.224C216.814 214.987 217.163 215.962 217.163 217.15C217.163 218.338 216.814 219.313 216.118 220.076C215.421 220.839 214.578 221.22 213.588 221.22C212.598 221.22 211.754 220.839 211.058 220.076ZM211.96 215.038C211.542 215.537 211.333 216.241 211.333 217.15C211.333 218.059 211.542 218.763 211.96 219.262C212.385 219.761 212.928 220.01 213.588 220.01C214.248 220.01 214.787 219.761 215.205 219.262C215.63 218.763 215.843 218.059 215.843 217.15C215.843 216.241 215.63 215.537 215.205 215.038C214.787 214.539 214.248 214.29 213.588 214.29C212.928 214.29 212.385 214.539 211.96 215.038Z"
    fill="white" />
  <path
    d="M279.275 215.83V214.4L280.705 213.3H281.86V221H280.595V214.84L279.275 215.83ZM283.016 218.47C283.016 218.118 283.093 217.751 283.247 217.37C283.408 216.981 283.562 216.677 283.709 216.457C283.863 216.23 284.072 215.947 284.336 215.61L286.096 213.3H287.581L285.92 215.467L285.436 215.885V215.94L285.656 215.863C285.876 215.804 286.114 215.775 286.371 215.775C287.09 215.775 287.698 216.035 288.197 216.556C288.703 217.069 288.956 217.707 288.956 218.47C288.956 219.247 288.677 219.9 288.12 220.428C287.563 220.956 286.851 221.22 285.986 221.22C285.121 221.22 284.409 220.956 283.852 220.428C283.295 219.9 283.016 219.247 283.016 218.47ZM284.787 217.326C284.486 217.619 284.336 218.001 284.336 218.47C284.336 218.939 284.486 219.324 284.787 219.625C285.088 219.918 285.487 220.065 285.986 220.065C286.485 220.065 286.884 219.918 287.185 219.625C287.486 219.324 287.636 218.939 287.636 218.47C287.636 218.001 287.486 217.619 287.185 217.326C286.884 217.025 286.485 216.875 285.986 216.875C285.487 216.875 285.088 217.025 284.787 217.326ZM290.058 216.655C289.912 216.508 289.838 216.325 289.838 216.105C289.838 215.885 289.912 215.702 290.058 215.555C290.205 215.408 290.388 215.335 290.608 215.335C290.828 215.335 291.012 215.408 291.158 215.555C291.305 215.702 291.378 215.885 291.378 216.105C291.378 216.325 291.305 216.508 291.158 216.655C291.012 216.802 290.828 216.875 290.608 216.875C290.388 216.875 290.205 216.802 290.058 216.655ZM290.058 220.945C289.912 220.798 289.838 220.615 289.838 220.395C289.838 220.175 289.912 219.992 290.058 219.845C290.205 219.698 290.388 219.625 290.608 219.625C290.828 219.625 291.012 219.698 291.158 219.845C291.305 219.992 291.378 220.175 291.378 220.395C291.378 220.615 291.305 220.798 291.158 220.945C291.012 221.092 290.828 221.165 290.608 221.165C290.388 221.165 290.205 221.092 290.058 220.945ZM293.355 220.076C292.659 219.313 292.31 218.338 292.31 217.15C292.31 215.962 292.659 214.987 293.355 214.224C294.052 213.461 294.895 213.08 295.885 213.08C296.875 213.08 297.719 213.461 298.415 214.224C299.112 214.987 299.46 215.962 299.46 217.15C299.46 218.338 299.112 219.313 298.415 220.076C297.719 220.839 296.875 221.22 295.885 221.22C294.895 221.22 294.052 220.839 293.355 220.076ZM294.257 215.038C293.839 215.537 293.63 216.241 293.63 217.15C293.63 218.059 293.839 218.763 294.257 219.262C294.683 219.761 295.225 220.01 295.885 220.01C296.545 220.01 297.084 219.761 297.502 219.262C297.928 218.763 298.14 218.059 298.14 217.15C298.14 216.241 297.928 215.537 297.502 215.038C297.084 214.539 296.545 214.29 295.885 214.29C295.225 214.29 294.683 214.539 294.257 215.038ZM301.498 220.076C300.801 219.313 300.453 218.338 300.453 217.15C300.453 215.962 300.801 214.987 301.498 214.224C302.195 213.461 303.038 213.08 304.028 213.08C305.018 213.08 305.861 213.461 306.558 214.224C307.255 214.987 307.603 215.962 307.603 217.15C307.603 218.338 307.255 219.313 306.558 220.076C305.861 220.839 305.018 221.22 304.028 221.22C303.038 221.22 302.195 220.839 301.498 220.076ZM302.4 215.038C301.982 215.537 301.773 216.241 301.773 217.15C301.773 218.059 301.982 218.763 302.4 219.262C302.825 219.761 303.368 220.01 304.028 220.01C304.688 220.01 305.227 219.761 305.645 219.262C306.07 218.763 306.283 218.059 306.283 217.15C306.283 216.241 306.07 215.537 305.645 215.038C305.227 214.539 304.688 214.29 304.028 214.29C303.368 214.29 302.825 214.539 302.4 215.038Z"
    fill="white" />
  <path
    d="M370.33 221V219.79L372.959 217.931C373.531 217.52 373.942 217.139 374.191 216.787C374.44 216.435 374.565 216.061 374.565 215.665C374.565 215.247 374.437 214.913 374.18 214.664C373.923 214.415 373.575 214.29 373.135 214.29C372.592 214.29 372.185 214.51 371.914 214.95C371.797 215.141 371.709 215.361 371.65 215.61H370.33C370.396 215.141 370.539 214.719 370.759 214.345C371.28 213.502 372.072 213.08 373.135 213.08C373.949 213.08 374.609 213.322 375.115 213.806C375.628 214.283 375.885 214.884 375.885 215.61C375.885 216.241 375.724 216.809 375.401 217.315C375.078 217.814 374.561 218.309 373.85 218.8L372.75 219.57L372.255 219.79V219.845L372.915 219.79H375.885V221H370.33ZM377.867 220.076C377.17 219.313 376.822 218.338 376.822 217.15C376.822 215.962 377.17 214.987 377.867 214.224C378.564 213.461 379.407 213.08 380.397 213.08C381.387 213.08 382.23 213.461 382.927 214.224C383.624 214.987 383.972 215.962 383.972 217.15C383.972 218.338 383.624 219.313 382.927 220.076C382.23 220.839 381.387 221.22 380.397 221.22C379.407 221.22 378.564 220.839 377.867 220.076ZM378.769 215.038C378.351 215.537 378.142 216.241 378.142 217.15C378.142 218.059 378.351 218.763 378.769 219.262C379.194 219.761 379.737 220.01 380.397 220.01C381.057 220.01 381.596 219.761 382.014 219.262C382.439 218.763 382.652 218.059 382.652 217.15C382.652 216.241 382.439 215.537 382.014 215.038C381.596 214.539 381.057 214.29 380.397 214.29C379.737 214.29 379.194 214.539 378.769 215.038ZM385.13 216.655C384.983 216.508 384.91 216.325 384.91 216.105C384.91 215.885 384.983 215.702 385.13 215.555C385.276 215.408 385.46 215.335 385.68 215.335C385.9 215.335 386.083 215.408 386.23 215.555C386.376 215.702 386.45 215.885 386.45 216.105C386.45 216.325 386.376 216.508 386.23 216.655C386.083 216.802 385.9 216.875 385.68 216.875C385.46 216.875 385.276 216.802 385.13 216.655ZM385.13 220.945C384.983 220.798 384.91 220.615 384.91 220.395C384.91 220.175 384.983 219.992 385.13 219.845C385.276 219.698 385.46 219.625 385.68 219.625C385.9 219.625 386.083 219.698 386.23 219.845C386.376 219.992 386.45 220.175 386.45 220.395C386.45 220.615 386.376 220.798 386.23 220.945C386.083 221.092 385.9 221.165 385.68 221.165C385.46 221.165 385.276 221.092 385.13 220.945ZM388.427 220.076C387.73 219.313 387.382 218.338 387.382 217.15C387.382 215.962 387.73 214.987 388.427 214.224C389.123 213.461 389.967 213.08 390.957 213.08C391.947 213.08 392.79 213.461 393.487 214.224C394.183 214.987 394.532 215.962 394.532 217.15C394.532 218.338 394.183 219.313 393.487 220.076C392.79 220.839 391.947 221.22 390.957 221.22C389.967 221.22 389.123 220.839 388.427 220.076ZM389.329 215.038C388.911 215.537 388.702 216.241 388.702 217.15C388.702 218.059 388.911 218.763 389.329 219.262C389.754 219.761 390.297 220.01 390.957 220.01C391.617 220.01 392.156 219.761 392.574 219.262C392.999 218.763 393.212 218.059 393.212 217.15C393.212 216.241 392.999 215.537 392.574 215.038C392.156 214.539 391.617 214.29 390.957 214.29C390.297 214.29 389.754 214.539 389.329 215.038ZM396.569 220.076C395.873 219.313 395.524 218.338 395.524 217.15C395.524 215.962 395.873 214.987 396.569 214.224C397.266 213.461 398.109 213.08 399.099 213.08C400.089 213.08 400.933 213.461 401.629 214.224C402.326 214.987 402.674 215.962 402.674 217.15C402.674 218.338 402.326 219.313 401.629 220.076C400.933 220.839 400.089 221.22 399.099 221.22C398.109 221.22 397.266 220.839 396.569 220.076ZM397.471 215.038C397.053 215.537 396.844 216.241 396.844 217.15C396.844 218.059 397.053 218.763 397.471 219.262C397.897 219.761 398.439 220.01 399.099 220.01C399.759 220.01 400.298 219.761 400.716 219.262C401.142 218.763 401.354 218.059 401.354 217.15C401.354 216.241 401.142 215.537 400.716 215.038C400.298 214.539 399.759 214.29 399.099 214.29C398.439 214.29 397.897 214.539 397.471 215.038Z"
    fill="white" />
  <path
    d="M12 138C12 134.686 9.31371 132 6 132C2.68629 132 0 134.686 0 138H12ZM0 138L0 186H12L12 138H0Z"
    fill="#C9FF32" />
  <path
    d="M36 106C36 102.686 33.3137 100 30 100C26.6863 100 24 102.686 24 106H36ZM24 106L24 186H36L36 106H24Z"
    fill="#FFAF40" />
  <path
    d="M60 72C60 68.6863 57.3137 66 54 66C50.6863 66 48 68.6863 48 72H60ZM48 72L48 186H60L60 72H48Z"
    fill="#FF0000" />
  <path d="M84 90C84 86.6863 81.3137 84 78 84C74.6863 84 72 86.6863 72 90H84ZM72 90V186H84V90H72Z"
    fill="#FFAF40" />
  <path
    d="M108 106C108 102.686 105.314 100 102 100C98.6863 100 96 102.686 96 106H108ZM96 106V186H108V106H96Z"
    fill="#FFAF40" />
  <path
    d="M132 114C132 110.686 129.314 108 126 108C122.686 108 120 110.686 120 114H132ZM120 114V186H132V114H120Z"
    fill="#FFAF40" />
  <path
    d="M156 146C156 142.686 153.314 140 150 140C146.686 140 144 142.686 144 146H156ZM144 146V186H156V146H144Z"
    fill="#C9FF32" />
  <path
    d="M180 126C180 122.686 177.314 120 174 120C170.686 120 168 122.686 168 126H180ZM168 126V186H180V126H168Z"
    fill="#C9FF32" />
  <path
    d="M204 146C204 142.686 201.314 140 198 140C194.686 140 192 142.686 192 146H204ZM192 146V186H204V146H192Z"
    fill="#C9FF32" />
  <path
    d="M228 130C228 126.686 225.314 124 222 124C218.686 124 216 126.686 216 130H228ZM216 130V186H228V130H216Z"
    fill="#C9FF32" />
  <path
    d="M252 122C252 118.686 249.314 116 246 116C242.686 116 240 118.686 240 122H252ZM240 122V186H252V122H240Z"
    fill="#C9FF32" />
  <path
    d="M276 96C276 92.6863 273.314 90 270 90C266.686 90 264 92.6863 264 96H276ZM264 96V186H276V96H264Z"
    fill="#FFD500" />
  <path
    d="M300 66C300 62.6863 297.314 60 294 60C290.686 60 288 62.6863 288 66H300ZM288 66V186H300V66H288Z"
    fill="#FFD500" />
  <g filter="url(#filter0_d_90_496)">
    <path
      d="M328 22C328 16.4772 323.523 12 318 12C312.477 12 308 16.4772 308 22H328ZM308 22V186H328V22H308Z"
      fill="#FF0000" />
  </g>
  <path
    d="M348 46C348 42.6863 345.314 40 342 40C338.686 40 336 42.6863 336 46H348ZM336 46V186H348V46H336Z"
    fill="#FF0000" />
  <path
    d="M372 96C372 92.6863 369.314 90 366 90C362.686 90 360 92.6863 360 96H372ZM360 96V186H372V96H360Z"
    fill="#FFAF40" />
  <path
    d="M396 96C396 92.6863 393.314 90 390 90C386.686 90 384 92.6863 384 96H396ZM384 96V186H396V96H384Z"
    fill="#C9FF32" />
  <defs>
    <filter id="filter0_d_90_496" x="292" y="0" width="52" height="206" filterUnits="userSpaceOnUse"
      color-interpolation-filters="sRGB">
      <feFlood flood-opacity="0" result="BackgroundImageFix" />
      <feColorMatrix in="SourceAlpha" type="matrix"
        values="0 0 0 0 0 0 0 0 0 0 0 0 0 0 0 0 0 0 127 0" result="hardAlpha" />
      <feOffset dy="4" />
      <feGaussianBlur stdDeviation="8" />
      <feComposite in2="hardAlpha" operator="out" />
      <feColorMatrix type="matrix" values="0 0 0 0 1 0 0 0 0 0 0 0 0 0 0 0 0 0 0.9 0" />
      <feBlend mode="normal" in2="BackgroundImageFix" result="effect1_dropShadow_90_496" />
      <feBlend mode="normal" in="SourceGraphic" in2="effect1_dropShadow_90_496" result="shape" />
    </filter>
  </defs>
</svg>